<svg width="640" height="480" viewBox="0 0 640 480" fill="none" xmlns="http://www.w3.org/2000/svg">
  <rect width="640" height="480" rx="36" fill="url(#bg)"/>
  <circle cx="512" cy="112" r="94" fill="#F9F4FF" fill-opacity="0.46"/>
  <circle cx="126" cy="390" r="106" fill="#FFFFFF" fill-opacity="0.22"/>
  <rect x="228" y="120" width="184" height="214" rx="36" fill="#FBF8FF" fill-opacity="0.9" stroke="#D9CAEE" stroke-width="8"/>
  <rect x="254" y="88" width="132" height="52" rx="24" fill="#FEFCFF" fill-opacity="0.94"/>
  <rect x="248" y="152" width="144" height="152" rx="24" fill="url(#drink)"/>
  <path d="M220 346C249 323 284 310 320 310C356 310 391 323 420 346" stroke="#8F69C7" stroke-width="12" stroke-linecap="round"/>
  <circle cx="173" cy="151" r="12" fill="#7A57B1"/>
  <circle cx="191" cy="129" r="12" fill="#946DD0"/>
  <circle cx="468" cy="299" r="12" fill="#7B58B5"/>
  <text x="60" y="90" fill="#1A2A4A" font-family="Poppins, Arial, sans-serif" font-size="28" font-weight="700">Veeru Dairy Foods</text>
  <text x="60" y="374" fill="#1A2A4A" font-family="Playfair Display, Georgia, serif" font-size="48" font-weight="700">Grape Juice</text>
  <text x="60" y="414" fill="#5D4A78" font-family="Poppins, Arial, sans-serif" font-size="22">Bright, fruity, and chilled</text>
  <defs>
    <linearGradient id="bg" x1="46" y1="26" x2="590" y2="450" gradientUnits="userSpaceOnUse">
      <stop stop-color="#DDCEF3"/>
      <stop offset="0.55" stop-color="#A381D7"/>
      <stop offset="1" stop-color="#F4EEFF"/>
    </linearGradient>
    <linearGradient id="drink" x1="248" y1="152" x2="392" y2="304" gradientUnits="userSpaceOnUse">
      <stop stop-color="#AD8BE3"/>
      <stop offset="1" stop-color="#7C57B6"/>
    </linearGradient>
  </defs>
</svg>
