<svg width="640" height="480" viewBox="0 0 640 480" fill="none" xmlns="http://www.w3.org/2000/svg">
  <rect width="640" height="480" rx="36" fill="url(#bg)"/>
  <circle cx="518" cy="112" r="94" fill="#FFF7DB" fill-opacity="0.46"/>
  <circle cx="126" cy="392" r="108" fill="#FFFFFF" fill-opacity="0.2"/>
  <rect x="214" y="102" width="212" height="242" rx="36" fill="#FFF8EE" fill-opacity="0.9" stroke="#F2D7A0" stroke-width="8"/>
  <rect x="244" y="68" width="152" height="54" rx="24" fill="#FFFDF6" fill-opacity="0.92"/>
  <rect x="236" y="136" width="168" height="174" rx="26" fill="url(#drink)"/>
  <path d="M208 354C246 325 282 312 320 312C358 312 394 325 432 354" stroke="#E6A53A" stroke-width="12" stroke-linecap="round"/>
  <circle cx="178" cy="130" r="15" fill="#A66E32"/>
  <circle cx="161" cy="158" r="12" fill="#C98D44"/>
  <circle cx="472" cy="312" r="15" fill="#D28A39"/>
  <text x="60" y="90" fill="#1A2A4A" font-family="Poppins, Arial, sans-serif" font-size="28" font-weight="700">Veeru Dairy Foods</text>
  <text x="60" y="374" fill="#1A2A4A" font-family="Playfair Display, Georgia, serif" font-size="42" font-weight="700">Regular Badam Milk</text>
  <text x="60" y="414" fill="#5C4B33" font-family="Poppins, Arial, sans-serif" font-size="22">Full-bodied almond milk delight</text>
  <defs>
    <linearGradient id="bg" x1="48" y1="30" x2="586" y2="446" gradientUnits="userSpaceOnUse">
      <stop stop-color="#F7E4BA"/>
      <stop offset="0.56" stop-color="#E8B660"/>
      <stop offset="1" stop-color="#FFF6E3"/>
    </linearGradient>
    <linearGradient id="drink" x1="236" y1="136" x2="404" y2="310" gradientUnits="userSpaceOnUse">
      <stop stop-color="#F2C973"/>
      <stop offset="1" stop-color="#D79A38"/>
    </linearGradient>
  </defs>
</svg>
