<svg width="640" height="480" viewBox="0 0 640 480" fill="none" xmlns="http://www.w3.org/2000/svg">
  <rect width="640" height="480" rx="36" fill="url(#bg)"/>
  <circle cx="506" cy="110" r="96" fill="#FFF6F7" fill-opacity="0.5"/>
  <circle cx="124" cy="388" r="112" fill="#FFFFFF" fill-opacity="0.22"/>
  <rect x="226" y="124" width="188" height="214" rx="34" fill="#FFF8FB" fill-opacity="0.9" stroke="#F2C8D2" stroke-width="8"/>
  <rect x="252" y="88" width="136" height="52" rx="24" fill="#FFF9FC" fill-opacity="0.94"/>
  <rect x="246" y="154" width="148" height="150" rx="24" fill="url(#drink)"/>
  <path d="M220 346C250 322 284 310 320 310C356 310 390 322 420 346" stroke="#E39DAF" stroke-width="12" stroke-linecap="round"/>
  <path d="M170 158C182 139 203 132 216 147C203 165 188 175 170 158Z" fill="#E06F8B"/>
  <path d="M469 301C481 282 502 275 515 290C502 308 487 318 469 301Z" fill="#D96E8A"/>
  <text x="60" y="90" fill="#1A2A4A" font-family="Poppins, Arial, sans-serif" font-size="28" font-weight="700">Veeru Dairy Foods</text>
  <text x="60" y="374" fill="#1A2A4A" font-family="Playfair Display, Georgia, serif" font-size="48" font-weight="700">Rose Milk</text>
  <text x="60" y="414" fill="#6A5260" font-family="Poppins, Arial, sans-serif" font-size="22">Floral, chilled, and refreshing</text>
  <defs>
    <linearGradient id="bg" x1="48" y1="26" x2="594" y2="450" gradientUnits="userSpaceOnUse">
      <stop stop-color="#F7D5DD"/>
      <stop offset="0.52" stop-color="#EAA8B7"/>
      <stop offset="1" stop-color="#FFF2F4"/>
    </linearGradient>
    <linearGradient id="drink" x1="246" y1="154" x2="394" y2="304" gradientUnits="userSpaceOnUse">
      <stop stop-color="#F2B4C4"/>
      <stop offset="1" stop-color="#DA829B"/>
    </linearGradient>
  </defs>
</svg>
