<svg width="640" height="480" viewBox="0 0 640 480" fill="none" xmlns="http://www.w3.org/2000/svg">
  <rect width="640" height="480" rx="36" fill="url(#bg)"/>
  <circle cx="510" cy="106" r="92" fill="#FFF6D8" fill-opacity="0.52"/>
  <circle cx="126" cy="380" r="110" fill="#FFFFFF" fill-opacity="0.22"/>
  <rect x="226" y="124" width="188" height="214" rx="34" fill="#FFF7E7" fill-opacity="0.88" stroke="#F6E6BF" stroke-width="8"/>
  <rect x="252" y="88" width="136" height="52" rx="24" fill="#FFF9ED" fill-opacity="0.92"/>
  <rect x="246" y="154" width="148" height="150" rx="24" fill="url(#drink)"/>
  <path d="M220 346C252 320 283 308 320 308C357 308 387 320 420 346" stroke="#EAB45B" stroke-width="12" stroke-linecap="round"/>
  <circle cx="194" cy="137" r="14" fill="#A56A2A"/>
  <circle cx="172" cy="160" r="14" fill="#B7762E"/>
  <circle cx="462" cy="308" r="15" fill="#C98B41"/>
  <text x="60" y="90" fill="#1A2A4A" font-family="Poppins, Arial, sans-serif" font-size="28" font-weight="700">Veeru Dairy Foods</text>
  <text x="60" y="374" fill="#1A2A4A" font-family="Playfair Display, Georgia, serif" font-size="44" font-weight="700">Small Badam Milk</text>
  <text x="60" y="414" fill="#5C4B33" font-family="Poppins, Arial, sans-serif" font-size="22">Freshly prepared daily</text>
  <defs>
    <linearGradient id="bg" x1="46" y1="34" x2="594" y2="450" gradientUnits="userSpaceOnUse">
      <stop stop-color="#F8E2B8"/>
      <stop offset="0.56" stop-color="#EDC472"/>
      <stop offset="1" stop-color="#FFF3D7"/>
    </linearGradient>
    <linearGradient id="drink" x1="246" y1="154" x2="394" y2="304" gradientUnits="userSpaceOnUse">
      <stop stop-color="#EEC56F"/>
      <stop offset="1" stop-color="#DCA348"/>
    </linearGradient>
  </defs>
</svg>
