<svg width="640" height="480" viewBox="0 0 640 480" fill="none" xmlns="http://www.w3.org/2000/svg">
  <rect width="640" height="480" rx="36" fill="url(#bg)"/>
  <circle cx="508" cy="110" r="90" fill="#FFFDF2" fill-opacity="0.5"/>
  <circle cx="130" cy="392" r="106" fill="#FFFFFF" fill-opacity="0.22"/>
  <rect x="232" y="118" width="176" height="214" rx="42" fill="#FFFBF0" fill-opacity="0.92" stroke="#EFE2AC" stroke-width="8"/>
  <rect x="244" y="154" width="152" height="150" rx="30" fill="url(#drink)"/>
  <path d="M282 120H358V146C358 161.464 345.464 174 330 174H310C294.536 174 282 161.464 282 146V120Z" fill="#FFF8DA"/>
  <path d="M220 344C250 321 283 309 320 309C357 309 390 321 420 344" stroke="#E1C15A" stroke-width="12" stroke-linecap="round"/>
  <circle cx="180" cy="154" r="10" fill="#D7B44D"/>
  <circle cx="195" cy="132" r="8" fill="#C7A03B"/>
  <circle cx="465" cy="298" r="11" fill="#D8B24C"/>
  <text x="60" y="90" fill="#1A2A4A" font-family="Poppins, Arial, sans-serif" font-size="28" font-weight="700">Veeru Dairy Foods</text>
  <text x="60" y="374" fill="#1A2A4A" font-family="Playfair Display, Georgia, serif" font-size="48" font-weight="700">Sweet Lassi</text>
  <text x="60" y="414" fill="#675B36" font-family="Poppins, Arial, sans-serif" font-size="22">Creamy and cooling</text>
  <defs>
    <linearGradient id="bg" x1="42" y1="22" x2="592" y2="452" gradientUnits="userSpaceOnUse">
      <stop stop-color="#F8F0BE"/>
      <stop offset="0.55" stop-color="#E9D57C"/>
      <stop offset="1" stop-color="#FFFCEC"/>
    </linearGradient>
    <linearGradient id="drink" x1="244" y1="154" x2="396" y2="304" gradientUnits="userSpaceOnUse">
      <stop stop-color="#F7EDBF"/>
      <stop offset="1" stop-color="#E6D167"/>
    </linearGradient>
  </defs>
</svg>
